<?xml version="1.0" encoding="utf-8"?>
<!-- Generator: Adobe Illustrator 22.1.0, SVG Export Plug-In . SVG Version: 6.00 Build 0)  -->
<svg version="1.1" id="Layer_1" xmlns="http://www.w3.org/2000/svg" xmlns:xlink="http://www.w3.org/1999/xlink" x="0px" y="0px"
	 viewBox="0 0 596.5 154.5" style="enable-background:new 0 0 596.5 154.5;" xml:space="preserve">
<polygon points="125.6,28.3 142.6,28.3 142.6,113.4 125.6,113.4 "/>
<path d="M251.6,55.3c-16.5,0-29.8,13.3-29.8,29.8s13.4,29.8,29.8,29.8c16.5,0,29.8-13.4,29.8-29.8C281.4,68.6,268,55.3,251.6,55.3z
	 M251.6,97.9c-7,0-12.8-5.7-12.8-12.8c0-7.1,5.7-12.8,12.8-12.8c7,0,12.8,5.7,12.8,12.8C264.4,92.1,258.7,97.9,251.6,97.9z"/>
<path d="M364.3,55.3c-16.5,0-29.8,13.3-29.8,29.7c0,16.5,13.4,29.8,29.8,29.8c7,0,13.4-2.4,18.4-6.4l2.9,5h8.5V89.3v-3.5
	c0-0.2,0-0.5,0-0.7C394.1,68.6,380.7,55.3,364.3,55.3z M364.3,97.9c-7,0-12.8-5.7-12.8-12.8c0-7.1,5.7-12.8,12.8-12.8
	c7,0,12.8,5.7,12.8,12.8C377.1,92.1,371.4,97.9,364.3,97.9z"/>
<path d="M512.8,28.3v29.9c-3.9-1.9-8.2-2.9-12.8-2.9c-16.5,0-29.8,13.3-29.8,29.6c0,16.5,13.4,29.8,29.8,29.8c7,0,13.4-2.4,18.4-6.4
	l0,0l2.9,5h8.5v-85H512.8z M500,97.9c-7,0-12.8-5.7-12.8-12.8c0-7.1,5.7-12.8,12.8-12.8c7,0,12.8,5.7,12.8,12.8
	C512.8,92.1,507.1,97.9,500,97.9z"/>
<polygon points="19.6,113.4 36,85 52.4,56.7 68.7,28.3 71.4,23.8 72.6,28.3 77.6,47 72,56.7 55.6,85 39.3,113.4 58.9,113.4 75.3,85 
	83.8,70.3 87.8,85 95.4,113.4 113,113.4 105.4,85 97.8,56.7 95.8,49.4 108,28.3 90.2,28.3 89.6,26.2 83.4,3 82.6,0 65.5,0 65.1,0.6 
	49.1,28.3 32.7,56.7 16.4,85 0,113.4 "/>
<path d="M432.8,55.2c-6.8,0-13.3,2.3-18.4,6.4l-2.8-4.9h-8.5v56.6h17v-1.4V85c0-7,5.6-12.8,12.7-12.8S445.6,78,445.6,85v28.3h17V85
	C462.6,68.5,449.2,55.2,432.8,55.2z"/>
<path d="M319.5,55.3c-6.9,0-13.3,2.3-18.4,6.3l0,0l0,0l0-0.1l-2.9-4.8h-8.5V60v24.3c0,0.2,0,0.5,0,0.7v9.9v18.5h17V85.1
	c0-7.1,5.8-12.8,12.8-12.8c2.3,0,4.5,0.6,6.4,1.7l8.5-14.7C330,56.8,324.9,55.3,319.5,55.3z"/>
<path d="M204.6,56.7l-2.9,4.8c-5.1-4-11.4-6.3-18.4-6.3c-16.5,0-29.8,13.4-29.8,29.8c0,16.5,13.4,29.8,29.8,29.8
	c4.6,0,8.9-1.1,12.8-2.9v12.7c0,7.1-5.8,12.8-12.8,12.8c-2.3,0-4.5-0.6-6.4-1.7l-8.5,14.7c4.4,2.6,9.5,4,14.9,4
	c16.5,0,29.8-13.4,29.8-29.8V56.7H204.6z M183.3,97.8c-7.1,0-12.8-5.8-12.8-12.8c0-7.1,5.8-12.8,12.8-12.8c7.1,0,12.8,5.8,12.8,12.8
	C196,92.1,190.3,97.8,183.3,97.8z"/>
<g>
	<path d="M551.3,27h18.6v4h-6.7v15.5h-5.3V31h-6.6V27z M591.5,46.5l0-11.1l-5.9,9.1h-2.4l-5.9-8.8v10.9h-4.9V27h4.3l7.8,11.8
		l7.6-11.8h4.3l0.1,19.5H591.5z"/>
</g>
</svg>
