<svg version="1.1" class="logo-icon" xmlns="http://www.w3.org/2000/svg" xmlns:xlink="http://www.w3.org/1999/xlink" x="0px" y="0px" viewBox="-50 -50 250 273.2" style="enable-background:new 0 0 150 173.2;" xml:space="preserve">
							<style type="text/css">
								.lst0{fill:#2A8BCB;}
								.lst1{fill:#35ADDD;}
								.lst2{fill:#3D4599;}
							</style>
							<g>
								<g>
									<polygon class="lst0" points="75,0 0,43.3 16,52.5 75,18.5 		"></polygon>
									<polygon class="lst1" points="75,0 0,43.3 16,52.5 		"></polygon>
									<polygon class="lst2" points="75,0 150,43.3 134,52.5 75,18.5 		"></polygon>
									<polygon class="lst0" points="75,0 150,43.3 134,52.5 		"></polygon>
									<polygon class="lst0" points="16,52.5 16,70.4 0,70.4 0,43.3 		"></polygon>
									<polygon class="lst1" points="16,70.4 0,70.4 0,43.3 		"></polygon>
									<polygon class="lst1" points="134,52.5 134,70.4 150,70.4 150,43.3 		"></polygon>
									<polygon class="lst2" points="134,70.4 150,70.4 150,43.3 		"></polygon>
								</g>
								<polygon class="lst0" points="75,173.2 0,129.9 16,120.7 75,154.7 	"></polygon>
								<polygon class="lst1" points="75,173.2 0,129.9 16,120.7 	"></polygon>
								<polygon class="lst0" points="75,173.2 150,129.9 134,120.7 75,154.7 	"></polygon>
								<polygon class="lst2" points="75,173.2 150,129.9 134,120.7 	"></polygon>
								<g>
									<polygon class="lst0" points="134,120.7 134,102.8 150,102.8 150,129.9 		"></polygon>
									<polygon class="lst1" points="134,120.7 150,102.8 150,129.9 		"></polygon>
								</g>
								<g>
									<polygon class="lst1" points="16,120.7 16,102.8 0,102.8 0,129.9 		"></polygon>
									<polygon class="lst0" points="16,120.7 0,102.8 0,129.9 		"></polygon>
								</g>
								<polygon class="lst1" points="83,168.6 83,114 75,118.7 67,114 67,168.6 75,173.2 	"></polygon>
								<path class="lst0" d="M75,50.6c-19.9,0-36,16.1-36,36s16.1,36,36,36c19.9,0,36-16.1,36-36S94.9,50.6,75,50.6z M75,106.6
								c-11,0-20-9-20-20c0-11,9-20,20-20s20,9,20,20C95,97.6,86,106.6,75,106.6z"></path>
							</g>
						</svg>