<svg enable-background="new 0 0 452.4 95.9" viewBox="0 0 452.4 95.9" xmlns="http://www.w3.org/2000/svg"><g fill="#fff"><path d="m88.9 59.2c-1.9.5-3.8.9-5.9.9h-66.6c-3.6 0-6.9 1.9-8.7 5l-7.6 13.1c-.4.7.1 1.6.9 1.6l66.1-.2c7.4 0 14.3-4 18-10.4l4.9-8.5c.5-.8-.2-1.8-1.1-1.5z"/><path d="m119.6.7c-6.8 2.8-19.5 3.3-25.9 3.4h-41.3c-7.7 0-14.8 4.1-18.6 10.8l-4.8 8c-.4.8.2 1.7 1.1 1.5 2-.5 4.1-.7 6.2-.7h63.4c5.4 0 10.3-2.9 13-7.5l8.2-14.1c.5-.8-.4-1.8-1.3-1.4z"/><path d="m104.2 31.3c-.1 0-.2 0-.2 0-2 .5-4.1.7-6.2.7h-66.3c-3.6 0-6.9 1.9-8.7 5l-8 13.9c-.4.7.1 1.6.9 1.6h.2c2-.5 4.1-.7 6.2-.7h63.4c5.4 0 10.3-2.9 13-7.5l6.6-11.4c.4-.7-.1-1.6-.9-1.6z"/><path d="m195.6 50.2c1.4-.8 2.4-.5 3 .5l5 9.8c.5.9.1 1.9-.8 2.6-5 3.7-12.6 6-21 6-11.4 0-20.3-3.5-26.4-9.9-5.2-5.6-8.1-13.3-8.1-22.5 0-8 2.6-14.8 6.8-19.9 6.4-7.9 16.7-12.2 28.2-12.2 8.4 0 15.3 2.6 20.3 6.1.9.7 1.4 1.6.8 2.7l-5.3 9.9c-.4.9-1.8 1.2-3 .5-4.3-2.7-8-4.1-12.9-4.1-5 0-9.4 1.9-12.3 5.2-2.7 3-4.3 7.1-4.3 11.8 0 5 1.6 9.4 4.5 12.3 2.8 3.1 7.1 5 12.2 5 4.9 0 8.8-1.2 13.3-3.8z"/><path d="m220.3 23.1c-1.4.8-2.3.8-3-.7l-3.9-8.5c-.5-1.2-.4-1.9.8-2.7 6.2-3.9 15.5-6.8 25.2-6.8 6.2 0 14.4 1.2 19.7 7.1 3.4 3.8 5.4 8.7 5.4 16.5v37.7c0 1.1-1 2-2 2h-11.9c-1.2 0-2.2-.9-2.2-2v-1.1h-.5c-5.6 3.5-10.3 4.5-16.5 4.5-5.6 0-10.7-1.8-14.4-5-3.8-3.1-6.1-8-6.1-14.1 0-8 4.9-14.1 11.6-16.7 8-3.2 16.9-3 24.2-3.6v-1.7c0-3.1-.5-5.4-1.9-7.1-1.5-1.9-4.3-2.7-7.5-2.7-6.5 0-12.4 2.3-17 4.9zm26.3 30.1v-11.8c-8.1.3-19.3-.4-19.3 7.8 0 4.3 3.8 6.8 9.8 6.6 3.1-.1 6.3-.7 9.5-2.6z"/><path d="m350.5 39.7v26c0 1.1-1 2-2 2h-13.8c-1.2 0-2-.9-2-2v-58c0-1.2.8-2 2-2h13.3c1.1 0 2 .8 2 2v3.7h.4c3.6-4.4 8.6-7 13.7-7 5.7 0 9.7.9 13.9 4.1 1 .8 1.1 1.3.7 2.8l-3.1 10.1c-.4 1-.9 1.3-1.7 1-.4-.2-2.4-1-2.8-1.2-3.4-1.6-8.3-2.1-11.6-1.1-8.2 2.5-9 11-9 19.6z"/><path d="m296 39.7v26c0 1.1-1 2-2 2h-13.8c-1.2 0-2-.9-2-2v-58c0-1.2.8-2 2-2h13.3c1.1 0 2 .8 2 2v3.7h.4c3.7-4.3 8.6-6.9 13.7-6.9 5.7 0 9.7.9 13.9 4.1 1 .8 1.1 1.3.7 2.8l-3.2 10.1c-.4 1-.9 1.3-1.7 1-.4-.2-2.4-1-2.8-1.2-3.4-1.6-8.3-2.1-11.6-1.1-8.2 2.4-8.9 10.9-8.9 19.5z"/><path d="m450.6 5.5h-14.3c-1.9 0-2.8.5-3.4 2.2l-10 33.3-3.5 9.8-15.4-43.1c-.5-1.6-1.6-2.2-3.4-2.2h-15.8c-2 0-2.2 1.6-1.6 2.8l27.2 63.7-7.9 21.8c-.4 1.2-.4 2.8 1.6 2.8h12.7c1.9 0 2.8-.5 3.4-2.2l32.1-86.1c.3-1.1.3-2.8-1.7-2.8z"/></g></svg>