<?xml version="1.0" encoding="UTF-8" standalone="no"?>
<svg
   xmlns:dc="http://purl.org/dc/elements/1.1/"
   xmlns:cc="http://creativecommons.org/ns#"
   xmlns:rdf="http://www.w3.org/1999/02/22-rdf-syntax-ns#"
   xmlns:svg="http://www.w3.org/2000/svg"
   xmlns="http://www.w3.org/2000/svg"
   xml:space="preserve"
   style="enable-background:new 0 0 70 69;"
   viewBox="0 0 70 69"
   y="0px"
   x="0px"
   id="Layer_1"
   version="1.1"><metadata
   id="metadata39"><rdf:RDF><cc:Work
       rdf:about=""><dc:format>image/svg+xml</dc:format><dc:type
         rdf:resource="http://purl.org/dc/dcmitype/StillImage" /></cc:Work></rdf:RDF></metadata><defs
   id="defs37" />
<style
   id="style2"
   type="text/css">
	.st0{fill:#FFFFFF;}
</style>
<g
   id="g32">
	<g
   id="g6">
		<path
   id="path4"
   d="M46.7,36.8c-1-3.8-2-7.2-2.8-10.5c-0.2-0.7-0.6-0.9-1-1c-1-0.3-2-0.5-3-0.8c-2.3-0.6-4.8-1.2-7.1-1.9    c-0.8-0.2-1.4-0.1-2,0.6c-2.1,2.1-4.4,4.4-7.2,7.3c-0.6,0.6-0.5,1.2-0.4,1.7c0.8,2.9,1.7,6.3,2.6,9.6c0.3,1,0.8,1.6,1.7,1.8    c2.2,0.6,4.5,1.2,6.7,1.7l1.3,0.3c0.5,0.1,0.9,0.3,1.3,0.4c0.2,0.1,0.4,0.1,0.6,0.2l0,0c0.1,0,0.2,0,0.3,0c0.6,0,0.9-0.4,1.1-0.6    c0.1-0.1,0.1-0.1,0.2-0.2l1.2-1.3c1.9-1.9,3.9-4,5.9-5.9C46.6,38.1,47,37.6,46.7,36.8z M44,37.7L44,37.7c-0.9,0.9-1.7,1.8-2.6,2.6    c-1.1,1.1-2.3,2.3-3.5,3.5c-0.3,0.3-0.6,0.4-1,0.2c-2.8-0.8-5.6-1.5-8.4-2.3c-0.4-0.1-0.6-0.2-0.7-0.7c-0.7-2.8-1.4-5.6-2.3-8.5    c-0.2-0.5-0.1-0.7,0.2-1c2.3-2.3,4.4-4.4,6.3-6.5c0.1-0.1,0.2-0.2,0.4-0.2c0.1,0,0.2,0,0.4,0.1l1.6,0.5c2.2,0.6,4.5,1.3,6.8,1.9    c0.6,0.2,0.8,0.4,0.9,1.1c0.4,1.9,0.9,3.7,1.4,5.5c0.2,0.7,0.4,1.5,0.6,2.2c0.1,0.2,0.1,0.4,0.2,0.6c0,0.1,0,0.1,0,0.1    C44.5,37.2,44.3,37.4,44,37.7z"
   class="st0" />
	</g>
	<g
   id="g10">
		<path
   id="path8"
   d="M22.9,45c-1.3,1.2-2.5,2.5-3.8,3.7c-0.8,0.9-1.7,1.7-2.6,2.6c0,0-0.1,0.1-0.1,0.2c-0.2,0.2-0.4,0.6-0.8,0.6    c0,0-0.1,0-0.1,0c-0.3,0-0.5-0.1-0.8-0.4c-0.3-0.3-0.5-0.6-0.5-0.9c0-0.5,0.3-0.8,0.6-1l0.1-0.1c1.1-1,2.1-2.1,3.2-3.2    c0.9-0.9,1.8-1.8,2.7-2.7c0.4-0.4,0.5-0.6,0.3-1c-0.8-2.7-1.5-5.4-2.1-7.9v0c-0.1-0.5-0.2-0.6-0.5-0.7c-1.8-0.5-3.6-1-5.3-1.4    c-0.9-0.2-1.8-0.5-2.8-0.8c-0.1,0-0.1,0-0.2,0c0.2,0-0.4,0-0.4,0c-0.2,0-0.4,0.1-0.5,0.3c-0.1,0.1-0.1,0.1-0.2,0.2    c-0.6,0.6-1.3,1.3-1.9,1.9c-1.2,1.2-2.4,2.4-3.6,3.5c0,0-0.1,0.1-0.1,0.2C3.4,38.6,3.2,39,2.7,39c-0.3,0-0.6-0.1-1-0.4    c-0.4-0.3-0.5-0.7-0.5-1c0-0.5,0.4-0.7,0.7-0.9c0.1-0.1,0.2-0.1,0.2-0.2c0.9-1,1.9-2,2.8-2.9c1.1-1.1,2.2-2.2,3.2-3.3    c0.6-0.6,1.2-1,2.3-0.6c3,0.9,6.1,1.7,8.7,2.4c1,0.3,1.6,0.8,1.9,1.9c0.6,2.4,1.3,4.9,2,7.2c0.2,0.6,0.3,1.1,0.5,1.7    C23.7,43.7,23.5,44.4,22.9,45L22.9,45z"
   class="st0" />
	</g>
	<g
   id="g14">
		<path
   id="path12"
   d="M51.1,15.9c-0.1,0-0.1,0.1-0.2,0.1c-1.1,1.1-2.2,2.2-3.3,3.3c-1,1-2.1,2.1-3.2,3.2c-0.4,0.4-0.8,0.6-1.2,0.6    c-0.2,0-0.4,0-0.6-0.1c-3.5-0.9-6.6-1.8-9.5-2.5c-0.8-0.2-1-0.9-1.1-1.2l-0.4-1.4c-0.7-2.6-1.4-5.3-2.1-7.9    c-0.2-0.9-0.1-1.6,0.6-2.2C32.6,5.1,34.6,3,36.5,1c0.9-0.9,1.6-0.2,1.8,0c0.3,0.2,0.4,0.5,0.4,0.8c0,0.4-0.3,0.7-0.5,0.9    c0,0-0.1,0.1-0.1,0.1c-0.5,0.5-1.1,1.1-1.6,1.6c-1.4,1.4-2.8,2.8-4.3,4.2c-0.5,0.5-0.6,0.8-0.4,1.4c0.3,1.2,0.6,2.4,1,3.6    c0.3,1.3,0.7,2.7,1,4c0.1,0.5,0.2,0.7,0.6,0.8c2,0.5,3.9,1.1,5.9,1.6c0.8,0.2,1.6,0.4,2.3,0.6c0,0,0.1,0,0.1,0c0,0,0.1,0,0.1,0    l0.1,0c0.1,0,0.1,0,0.3-0.2c0.1-0.1,0.1-0.1,0.2-0.2l1.8-1.8c1.4-1.4,2.7-2.7,4.1-4.1l0,0c0.3-0.3,0.6-0.6,1.1-0.6l0,0    c0.3,0,0.6,0.2,0.9,0.4c0.3,0.3,0.4,0.6,0.4,0.9C51.6,15.4,51.3,15.7,51.1,15.9L51.1,15.9z"
   class="st0" />
	</g>
	<g
   id="g18">
		<path
   id="path16"
   d="M68,32.2c-0.1,0.1-0.2,0.1-0.2,0.2c-1.7,1.8-3.5,3.6-5.3,5.3l-1,1c-0.1,0.1-0.1,0.1-0.2,0.2    c-0.2,0.2-0.6,0.6-1,0.6c-0.1,0-0.2,0-0.4-0.1l-2.5-0.7c-2.6-0.7-5-1.4-7.4-2c-0.9-0.2-1-1-1.2-1.3c-1-3.5-1.8-6.6-2.6-9.5    c-0.2-0.9,0.1-1.4,0.5-1.7c2.5-2.4,4.6-4.6,6.6-6.6c0.2-0.2,0.6-0.6,1-0.6c0.4,0,0.7,0.3,0.9,0.5c0.3,0.3,0.4,0.6,0.4,0.8    c0,0.4-0.3,0.6-0.5,0.8c-0.1,0-0.1,0.1-0.2,0.1c-0.8,0.8-1.6,1.6-2.4,2.4c-1.1,1.2-2.3,2.3-3.5,3.5c-0.4,0.4-0.4,0.7-0.2,1.4    c0.4,1.6,0.8,3.2,1.2,4.7c0.3,1,0.5,1.9,0.8,2.9c0.1,0.4,0.3,0.6,0.8,0.7c2.7,0.7,5.4,1.5,7.8,2.1c0.4,0.1,0.6,0,1-0.3    c2.2-2.2,4-4,5.7-5.7c0,0,0.1-0.1,0.2-0.2c0.2-0.3,0.4-0.7,0.9-0.7c0.3,0,0.6,0.1,1,0.4c0.4,0.3,0.5,0.7,0.5,1    C68.7,31.8,68.3,32,68,32.2L68,32.2z"
   class="st0" />
	</g>
	<g
   id="g22">
		<path
   id="path20"
   d="M40.1,61.1c-0.1,0.1-0.1,0.1-0.2,0.2c-2.4,2.4-4.5,4.6-6.6,6.7c-0.2,0.2-0.5,0.5-0.9,0.5l0,0    c-0.3,0-0.5-0.1-0.8-0.4c-0.3-0.3-0.4-0.6-0.4-0.9c0-0.4,0.2-0.7,0.5-1c0.8-0.8,1.6-1.5,2.3-2.3c1.2-1.2,2.4-2.4,3.6-3.5    c0.4-0.4,0.6-0.6,0.4-1.2c-0.7-2.5-1.3-5-2-7.6c-0.2-0.6-0.3-0.8-0.9-1c-2.4-0.6-5.2-1.3-7.9-2.2c-0.3-0.1-0.4,0-0.7,0.3    c0,0-0.1,0.1-0.1,0.1c-0.8,0.8-1.5,1.5-2.3,2.3c-1.1,1.1-2.3,2.3-3.5,3.5c-0.1,0.1-0.1,0.1-0.2,0.2c-0.2,0.2-0.5,0.6-1,0.6    c-0.3,0-0.6-0.1-0.9-0.4c-0.3-0.3-0.4-0.6-0.4-0.9c0-0.4,0.3-0.7,0.6-0.9c0.1-0.1,0.1-0.1,0.2-0.1c0.9-0.9,1.7-1.8,2.6-2.6    c1.2-1.2,2.4-2.4,3.6-3.7c0.7-0.7,1.4-0.9,2.3-0.6c2.7,0.8,5.4,1.5,8.1,2.2l0.7,0.2c1,0.2,1.4,0.7,1.7,1.7c0.5,2,1.1,4.1,1.6,6.1    c0.2,0.9,0.5,1.7,0.7,2.6c0.1,0.2,0.1,0.4,0.1,0.7c0,0.2,0.1,0.3,0.1,0.6C40.7,60.4,40.5,60.7,40.1,61.1L40.1,61.1z"
   class="st0" />
	</g>
	<g
   id="g26">
		<path
   id="path24"
   d="M60,43.4c-0.3,1.1-1.2,0.9-1.6,0.7l0,0c-1.1-0.3-2.3-0.6-3.4-0.9c-1.5-0.4-3.1-0.8-4.7-1.3    c-0.5-0.2-0.7-0.1-1,0.2c-2.1,2.2-3.8,3.9-5.5,5.5c-0.6,0.6-0.7,1-0.5,1.7c0.5,1.8,1,3.6,1.5,5.3c0.2,0.7,0.4,1.4,0.6,2.1    c0.1,0.2,0.1,0.4,0.1,0.4l0,0.1c0,0.3,0.1,1.3-0.9,1.4c-0.1,0-0.2,0-0.3,0c-0.6,0-0.9-0.3-1.1-0.8l-0.6-2.5    c-0.6-2.4-1.3-4.8-1.9-7.2c-0.2-0.7,0.3-1.1,0.6-1.4c0,0,0.1-0.1,0.1-0.1c1.2-1.2,2.4-2.4,3.5-3.5c1.1-1.1,2.3-2.3,3.4-3.4    c0.6-0.6,1.4-0.5,1.7-0.3c3,0.8,5.9,1.6,8.9,2.5c0.1,0,0.1,0,0.2,0c0.3,0.1,0.7,0.2,0.9,0.5C60.1,42.8,60.1,43.1,60,43.4L60,43.4z    "
   class="st0" />
	</g>
	<g
   id="g30">
		<path
   id="path28"
   d="M28.5,22.2L27.7,23c-2,2-4,4-6,6c-0.3,0.3-0.7,0.5-1,0.5c-0.2,0-0.3,0-0.5-0.1c-2.8-0.8-6-1.7-9.1-2.5    c-0.4-0.1-0.7-0.2-0.9-0.5c-0.2-0.3-0.1-0.7-0.1-1c0.1-0.3,0.2-0.6,0.5-0.7c0.3-0.2,0.7-0.1,0.9,0c0,0,0.1,0,0.1,0    c1,0.3,1.9,0.5,2.9,0.8c1.7,0.4,3.4,0.9,5.1,1.4c0.7,0.2,1,0.1,1.5-0.3c1-1.1,2.1-2.2,3.2-3.2c0.7-0.7,1.4-1.4,2.2-2.2    c0.1-0.1,0.2-0.2,0.2-0.2c0.1-0.1,0.3-0.3,0.3-0.3l0-0.1l-0.4-1.7c-0.6-2.1-1.1-4-1.6-6c0,0,0-0.1-0.1-0.1    c-0.1-0.2-0.2-0.4-0.1-0.7c0-0.1-0.1-0.2-0.1-0.3c-0.1-0.3-0.2-0.7,0-1.1c0.2-0.3,0.4-0.4,0.8-0.5c0.4-0.1,0.8-0.1,1,0.1    c0.4,0.3,0.4,0.8,0.5,1.1c0,0.1,0,0.2,0,0.3c0.4,1.4,0.7,2.7,1.1,4.1c0.4,1.4,0.7,2.8,1.1,4.2C29.4,20.9,29.2,21.6,28.5,22.2    L28.5,22.2z"
   class="st0" />
	</g>
</g>
</svg>