<?xml version="1.0" encoding="UTF-8"?>
<svg width="148px" height="22px" viewBox="0 0 148 22" version="1.1" xmlns="http://www.w3.org/2000/svg" xmlns:xlink="http://www.w3.org/1999/xlink">
    <!-- Generator: Sketch 51.3 (57544) - http://www.bohemiancoding.com/sketch -->
    <title>Group 41</title>
    <desc>Created with Sketch.</desc>
    <defs></defs>
    <g id="导航" stroke="none" stroke-width="1" fill="none" fill-rule="evenodd">
        <g id="Group-41" fill-rule="nonzero">
            <g id="Group-28">
                <path d="M73.3164386,8.36986616 C74.227602,8.36986616 74.9663059,7.63049694 74.9663059,6.71851231 C74.9663059,5.80652769 74.227602,5.06698922 73.3164386,5.06698922 C72.4052747,5.06698922 71.6665708,5.80652769 71.6665708,6.71851231 C71.6665708,7.63049694 72.4052747,8.36986616 73.3164386,8.36986616" id="Fill-1" fill="#3C7AD2"></path>
                <path d="M9.35260807,6.72754922 C9.35260807,3.58899538 7.82515337,0.889933847 6.66324629,0.0111184615 C6.65851212,0.00824153847 6.57431104,-0.0389738463 6.58141233,0.0864261537 C6.58158143,0.0881184616 6.5800597,0.0886261537 6.5800597,0.0901492306 C6.48334683,6.15013384 3.39039482,7.79251847 1.68997289,10.0050415 C-2.23416877,15.1107338 1.41538949,20.7085492 5.13156466,21.7430569 C7.21106049,22.3219954 4.65138188,20.7187031 4.32167891,17.3325646 C3.92316099,13.2397185 9.35260807,10.1157185 9.35260807,6.72754922" id="Fill-3" fill="#D7E2F2"></path>
                <path d="M11.3913898,8.79062463 C11.366028,8.77437847 11.3300143,8.76320922 11.3049907,8.80196306 C11.236683,9.56502463 10.4058315,11.1965785 9.35264188,12.6949477 C5.78069064,17.7774554 7.81622604,20.22724 8.96088713,21.5431785 C9.62536544,22.3070862 8.96088713,21.5431785 10.6219138,20.7625169 C10.7522733,20.7014246 13.8631476,19.0651323 14.2001209,15.3371477 C14.5262733,11.7272862 12.2142946,9.45180922 11.3913898,8.79062463" id="Fill-5" fill="#3C7AD2"></path>
                <path d="M27.7857939,5.08854922 L27.7857939,11.4502723 L21.4683468,11.4502723 L21.4683468,5.91338 C21.4683468,5.45781078 21.0994177,5.08854922 20.6444276,5.08854922 L18.5120102,5.08854922 L18.5120102,20.3166108 C18.5120102,20.77218 18.8811085,21.1414415 19.3362676,21.1414415 L21.4683468,21.1414415 L21.4683468,14.0359492 L27.7857939,14.0359492 L27.7857939,20.3166108 C27.7857939,20.77218 28.1548922,21.1414415 28.6100513,21.1414415 L30.7419615,21.1414415 L30.7419615,5.91338 C30.7419615,5.45781078 30.3732014,5.08854922 29.9180422,5.08854922 L27.7857939,5.08854922 Z" id="Fill-7" fill="#D7E2F2"></path>
                <path d="M40.3225381,9.06917847 L40.3225381,16.6994554 C40.3225381,17.3927938 39.9691639,18.0500862 39.3694426,18.39684 C37.695397,19.3650092 35.9631884,18.1556862 35.9631884,16.5611938 L35.9631884,9.89400922 C35.9631884,9.43844 35.5940902,9.06917847 35.1391001,9.06917847 L32.9983979,9.06917847 L32.9982288,16.8331477 C32.9982288,19.3311631 35.0401892,21.3749631 37.5361252,21.3749631 L38.749601,21.3749631 C41.2453683,21.3749631 43.2874976,19.3311631 43.2874976,16.8329785 L43.2874976,9.89400922 C43.2874976,9.43844 42.9185684,9.06917847 42.4634094,9.06917847 L40.3225381,9.06917847 Z" id="Fill-9" fill="#D7E2F2"></path>
                <path d="M72.6624262,21.1414246 L74.7945054,21.1414246 L74.7945054,10.3358708 C74.7945054,9.88047078 74.4257451,9.51104 73.9705861,9.51104 L71.8383376,9.51104 L71.8383376,20.3165938 C71.8383376,20.7721631 72.2072668,21.1414246 72.6624262,21.1414246" id="Fill-11" fill="#3C7AD2"></path>
                <path d="M53.5948579,16.2657846 C53.5948579,17.7338615 52.3947391,18.711 50.9281525,18.711 C49.461397,18.711 48.2614475,17.7338615 48.2614475,16.2657846 L48.2614475,14.1708769 C48.2614475,12.7029692 49.461397,11.7256615 50.9281525,11.7256615 C52.3947391,11.7256615 53.5948579,12.7029692 53.5948579,14.1708769 L53.5948579,16.2657846 Z M50.9281525,9.06163078 C47.827254,9.06163078 45.2898936,11.2819385 45.2898936,14.3856308 L45.2898936,16.0644 C45.2898936,19.1680923 47.827254,21.3750308 50.9281525,21.3750308 C54.0290514,21.3750308 56.5662426,19.1680923 56.5662426,16.0644 L56.5662426,14.3856308 C56.5662426,11.2819385 54.0290514,9.06163078 50.9281525,9.06163078 Z" id="Fill-13" fill="#D7E2F2"></path>
                <path d="M66.8726391,16.2657846 C66.8726391,17.7338615 65.6726891,18.711 64.2059337,18.711 C62.7393475,18.711 61.5393975,17.7338615 61.5393975,16.2657846 L61.5393975,14.1708769 C61.5393975,12.7029692 62.7393475,11.7256615 64.2059337,11.7256615 C65.6726891,11.7256615 66.8726391,12.7029692 66.8726391,14.1708769 L66.8726391,16.2657846 Z M64.2061029,9.06163078 L64.2059337,9.06163078 C63.2369451,9.06163078 62.3227381,9.27841537 61.5241806,9.67136922 L61.5241806,5.92916922 C61.5241806,5.47376922 61.1550822,5.10450769 60.7000921,5.10450769 L58.567844,5.10450769 L58.567844,16.0644 C58.567844,19.1680923 61.1050351,21.3750308 64.2059337,21.3750308 L64.2061029,21.3750308 C67.3068326,21.3750308 69.8441926,19.1680923 69.8441926,16.0644 L69.8441926,14.3856308 C69.8441926,11.2819385 67.3068326,9.06163078 64.2061029,9.06163078 Z" id="Fill-15" fill="#3C7AD2"></path>
            </g>
        </g>
    </g>
</svg>