<svg width="207" height="53" xmlns="http://www.w3.org/2000/svg" xmlns:xlink="http://www.w3.org/1999/xlink"><defs><path id="a" d="M.093.308h17.122v18.434H.093z"/><path id="c" d="M0 .312h52.825V53H0z"/></defs><g fill="none" fill-rule="evenodd"><path d="M88.5 30.151h-2.95a.325.325 0 0 0-.327.324v8.285h-7.835V19.778h2.3c.18 0 .327-.145.327-.323v-2.52a.325.325 0 0 0-.327-.323h-8.774a.326.326 0 0 0-.328.324v2.519c0 .178.147.323.328.323h2.465V38.76h-2.465a.325.325 0 0 0-.328.323v2.519c0 .179.147.323.328.323H88.5c.18 0 .327-.144.327-.323V30.475a.325.325 0 0 0-.327-.324m13.362 7.041c-1.524 1.393-3.141 2.088-4.85 2.088-.992 0-1.776-.276-2.352-.828-.576-.552-.864-1.235-.864-2.051 0-.876.329-1.59.985-2.142.657-.552 1.475-.828 2.453-.828 1.561 0 3.104.576 4.628 1.728v2.033zm5.669 1.404h-2.175v-8.062c0-1.416-.084-2.447-.25-3.096-.168-.648-.494-1.25-.977-1.809-.483-.558-1.217-1.013-2.202-1.367-.985-.354-2.153-.53-3.503-.53-3.51 0-6.029 1.233-7.555 3.7-.111.181-.005.419.205.473l2.727.697a.336.336 0 0 0 .363-.145c.8-1.231 2.04-1.847 3.72-1.847 1.03 0 1.862.193 2.5.576.638.384 1.044.816 1.218 1.296.173.48.26 1.164.26 2.052v1.727c-1.574-.984-3.203-1.475-4.888-1.475-1.81 0-3.355.533-4.637 1.602-1.282 1.068-1.923 2.411-1.923 4.031 0 1.607.604 2.927 1.812 3.959 1.208 1.032 2.63 1.547 4.264 1.547 2.107 0 4.015-.803 5.725-2.411v1.804c0 .176.148.32.33.32h4.986a.325.325 0 0 0 .331-.32v-2.402a.326.326 0 0 0-.331-.32zm32.523.201h-2.248v-8.884c0-1.53-.128-2.686-.383-3.47-.256-.784-.753-1.431-1.489-1.943-.737-.512-1.678-.769-2.823-.769-1.985 0-4.129.933-6.43 2.796-.766-1.863-2.158-2.796-4.176-2.796-2.007 0-4.055.846-6.146 2.536V24.01h-5.573a.327.327 0 0 0-.325.33v2.469c0 .182.145.329.325.329h2.102v11.66h-2.322a.327.327 0 0 0-.325.33v2.47c0 .182.146.328.325.328h8.06c.18 0 .325-.146.325-.329v-2.469a.327.327 0 0 0-.326-.33h-2.266v-9.605c2.065-1.542 3.754-2.314 5.065-2.314.802 0 1.37.263 1.705.787.334.525.5 1.373.5 2.545v11.715h5.665c.18 0 .325-.146.325-.329v-2.469a.327.327 0 0 0-.325-.33h-2.193v-9.605c1.888-1.542 3.574-2.314 5.06-2.314.524 0 .971.139 1.343.416.372.278.603.63.694 1.056.092.425.137 1.156.137 2.193v11.382h5.72a.326.326 0 0 0 .324-.329v-2.469a.327.327 0 0 0-.325-.33m18.116-1.622c-1.099 1.128-2.405 1.691-3.92 1.691-1.444 0-2.719-.531-3.823-1.592-1.104-1.062-1.656-2.498-1.656-4.31 0-1.978.567-3.492 1.7-4.542 1.135-1.049 2.424-1.574 3.868-1.574 1.468 0 2.748.507 3.84 1.52 1.092 1.014 1.638 2.438 1.638 4.273 0 1.895-.55 3.407-1.647 4.534m-3.223-13.44c-2.482 0-4.577.984-6.283 2.95v-9.754a.32.32 0 0 0-.319-.32h-5.268a.32.32 0 0 0-.318.32v2.4c0 .177.142.32.318.32h2.257v18.945h-2.257a.32.32 0 0 0-.318.32v2.4c0 .178.142.32.318.32h5.268a.319.319 0 0 0 .319-.32V39.03c.501.732 1.325 1.397 2.47 1.997 1.147.6 2.41.9 3.796.9 2.47 0 4.496-.885 6.077-2.653 1.581-1.77 2.372-3.95 2.372-6.541 0-2.698-.809-4.872-2.425-6.522-1.618-1.65-3.62-2.473-6.007-2.473M180 37.257c-1.166 1.086-2.503 1.628-4.008 1.628-1.555 0-2.89-.516-4.008-1.547-1.116-1.032-1.675-2.507-1.675-4.426 0-1.691.543-3.115 1.63-4.273 1.085-1.157 2.424-1.736 4.016-1.736 1.48 0 2.816.492 4.007 1.475 1.191.983 1.786 2.44 1.786 4.372 0 1.92-.583 3.421-1.749 4.507m7.637 1.34h-2.37V16.932a.324.324 0 0 0-.33-.32h-5.78a.325.325 0 0 0-.33.32v2.4c0 .177.148.32.33.32h2.592v6.89c-1.801-1.87-3.912-2.805-6.33-2.805-2.283 0-4.331.827-6.145 2.482-1.814 1.655-2.721 3.916-2.721 6.783 0 2.855.882 5.055 2.647 6.603 1.764 1.546 3.813 2.32 6.145 2.32 2.518 0 4.652-.946 6.404-2.842v2.234c0 .178.148.32.33.32h5.558c.182 0 .33-.142.33-.32v-2.4a.325.325 0 0 0-.33-.32" fill="#FFF"/><g transform="translate(189.552 22.94)"><mask id="b" fill="#fff"><use xlink:href="#a"/></mask><path d="M11.327 13.947c-1.496 1.41-3.083 2.115-4.76 2.115-.973 0-1.741-.28-2.307-.84-.565-.558-.848-1.25-.848-2.077 0-.888.322-1.611.967-2.17.644-.56 1.446-.84 2.406-.84 1.532 0 3.046.584 4.542 1.751v2.06zm5.564 1.422h-2.136V7.2c0-1.434-.082-2.48-.246-3.136a4.555 4.555 0 0 0-.958-1.833c-.473-.565-1.194-1.027-2.16-1.386C10.424.487 9.278.308 7.953.308c-3.445 0-5.916 1.25-7.413 3.75a.327.327 0 0 0 .2.479l2.676.705a.325.325 0 0 0 .357-.146c.785-1.248 2.002-1.871 3.65-1.871 1.01 0 1.828.195 2.454.583.627.39 1.024.827 1.195 1.313.17.487.255 1.18.255 2.08v1.75C9.782 7.954 8.184 7.456 6.53 7.456c-1.775 0-3.292.54-4.55 1.622C.723 10.161.094 11.522.094 13.163c0 1.628.592 2.966 1.778 4.011 1.186 1.046 2.58 1.568 4.185 1.568 2.067 0 3.94-.813 5.617-2.443v1.828c0 .179.145.323.325.323h4.893a.323.323 0 0 0 .324-.323v-2.434a.325.325 0 0 0-.324-.324z" fill="#FFF" mask="url(#b)"/></g><mask id="d" fill="#fff"><use xlink:href="#c"/></mask><path d="M30.803 20.524l2.977 7.893a.54.54 0 0 1-.016.422l-.902 1.918a.545.545 0 0 1-.301.278l-7.914 2.97a.544.544 0 0 1-.423-.016l-1.924-.9a.542.542 0 0 1-.278-.301l-2.977-7.892a.54.54 0 0 1 .016-.422l.902-1.92a.54.54 0 0 1 .302-.277l7.913-2.97a.547.547 0 0 1 .423.017l1.923.9a.54.54 0 0 1 .279.3m20.99-19.213L25.236 11.337l4.674-9.941a.76.76 0 0 0-.69-1.084h-7.484a.763.763 0 0 0-.685.427l-6.286 12.814L9.957.805a.763.763 0 0 0-.714-.493H1.715A.761.761 0 0 0 1 1.342l10.053 26.486-9.968-4.661A.762.762 0 0 0 0 23.855v7.466c0 .29.166.555.427.683l12.848 6.268L.494 43.07a.762.762 0 0 0-.494.712v7.509c0 .532.534.9 1.032.712l26.556-10.027-4.674 9.942a.76.76 0 0 0 .69 1.083h7.486c.29 0 .556-.166.684-.426L38.06 39.76l4.809 12.748a.763.763 0 0 0 .714.492h7.528a.761.761 0 0 0 .714-1.03L41.77 25.484l9.968 4.662a.763.763 0 0 0 1.086-.69v-7.465a.76.76 0 0 0-.428-.683L39.55 15.04l12.78-4.796a.762.762 0 0 0 .495-.712v-7.51a.762.762 0 0 0-1.033-.71" fill="#FFF" mask="url(#d)"/></g></svg>