<svg xmlns="http://www.w3.org/2000/svg" width="191.03" height="39.969" viewBox="0 0 191.03 39.969">
  <metadata><?xpacket begin="﻿" id="W5M0MpCehiHzreSzNTczkc9d"?>
<x:xmpmeta xmlns:x="adobe:ns:meta/" x:xmptk="Adobe XMP Core 5.6-c138 79.159824, 2016/09/14-01:09:01        ">
   <rdf:RDF xmlns:rdf="http://www.w3.org/1999/02/22-rdf-syntax-ns#">
      <rdf:Description rdf:about=""/>
   </rdf:RDF>
</x:xmpmeta>
<?xpacket end="w"?></metadata>
<defs>
    <style>
      .cls-1 {
        fill: #fff;
        fill-rule: evenodd;
      }
    </style>
  </defs>
  <path id="qtum-text" data-name="qtum-text" class="cls-1" d="M3199.3,821.99V806.61l-28.28-17.657h-0.1V821.99h-3.69V785.862l2.93-1.933,14.95,8.731,15.96-8.731,1.92,2.719V821.99h-3.69Zm-10.02-26.328,10.02,6.229,0.03-11.88Zm-45.8,22.087a12.1,12.1,0,0,1-4.17,3.733,15.954,15.954,0,0,1-13.4,0,12.119,12.119,0,0,1-4.15-3.733,14.122,14.122,0,0,1-2.13-4.918,23.4,23.4,0,0,1-.59-5.024V783.956h3.69V807.38a19.569,19.569,0,0,0,.52,4.484,11.4,11.4,0,0,0,1.66,3.87,8.8,8.8,0,0,0,3.05,2.741,10.9,10.9,0,0,0,9.32,0,8.71,8.71,0,0,0,3.05-2.741,11.612,11.612,0,0,0,1.67-3.87,19.566,19.566,0,0,0,.51-4.484V783.956h3.69v23.851a23.4,23.4,0,0,1-.59,5.024A13.938,13.938,0,0,1,3143.48,817.749Zm-59.05,4.241h-3.7V787.4h-12.14v-3.442h27.98V787.4h-12.14V821.99ZM3023,820.541a17.422,17.422,0,0,1-5.82-4.057,18.675,18.675,0,0,1-3.84-6.177,22.83,22.83,0,0,1,0-15.634,18.707,18.707,0,0,1,3.84-6.175,17.4,17.4,0,0,1,5.82-4.056,18.957,18.957,0,0,1,14.55,0,17.482,17.482,0,0,1,5.81,4.046,18.721,18.721,0,0,1,3.85,6.173,21.451,21.451,0,0,1,1.38,7.8,19.885,19.885,0,0,1-2.13,9.2,16.592,16.592,0,0,1-6.38,6.73v0.11h10.97v3.487h-20.76A18.177,18.177,0,0,1,3023,820.541Zm13.31-3.3a13.83,13.83,0,0,0,4.57-3.535,16.372,16.372,0,0,0,2.89-5.111,18.78,18.78,0,0,0,0-12.21,16.372,16.372,0,0,0-2.89-5.111,13.754,13.754,0,0,0-4.57-3.536,13.5,13.5,0,0,0-6.02-1.309,13.387,13.387,0,0,0-10.6,4.845,16.456,16.456,0,0,0-2.84,5.111,19.136,19.136,0,0,0,0,12.21,16.456,16.456,0,0,0,2.84,5.111,13.4,13.4,0,0,0,10.6,4.846A13.488,13.488,0,0,0,3036.31,817.243Z" transform="translate(-3011.97 -783)"/>
</svg>
