<svg viewBox="5.62399959564209 2.3510000705718994 28.669998168945312 28.66600227355957" height="34.184" width="38.5" xmlns="http://www.w3.org/2000/svg" data-type="color" role="img" preserveAspectRatio="xMidYMid meet" style="">
    <g>
        <path d="M19.959 2.351c-7.904 0-14.335 6.43-14.335 14.332 0 7.904 6.431 14.334 14.335 14.334 7.904 0 14.335-6.43 14.335-14.334 0-7.902-6.431-14.332-14.335-14.332zm0 27.557c-7.292 0-13.225-5.934-13.225-13.226 0-7.291 5.933-13.222 13.225-13.222s13.225 5.931 13.225 13.222c0 7.293-5.933 13.226-13.225 13.226z" fill="#515151" data-color="1"></path>
        <path d="M23.807 8.228l-2.965 1.897h-7.797l-1.672 5.477h5.776l-.851 2.835-3.617 5.257 2.612-1.98-.09.345-1.192 3.551h6.385l2.297-9.508.656-.498h4.239l1.687-5.477h-6.676l1.208-1.899zm-4.203 16.313h-4.176l.821-2.562 5.058-3.938-1.703 6.5zm-7.155-9.777l1.132-3.669 4.892.014-4.561 2.912 1.794.764-3.257-.021zm6.615.727l-3.014-1.575 5.759-3.688-.016.029L19.79 13.4l-.208.333 3.359 1.41-7.604 5.765 3.727-5.417zm9.131-4.396l-1.199 3.689-2.25-.018-3.357-1.266 1.473-2.405h5.333z" fill="#515151" data-color="1"></path>
    </g>
</svg>